<svg width="541" height="462" viewBox="0 0 541 462" fill="none" xmlns="http://www.w3.org/2000/svg">
<g clip-path="url(#clip0_1_3)">
<path d="M532.612 363.564L283.691 447.319C280.591 448.358 277.204 448.131 274.272 446.687C271.34 445.243 269.104 442.7 268.053 439.616L152.75 99.971C151.706 96.8849 151.934 93.5125 153.385 90.5938C154.836 87.6751 157.39 85.4485 160.488 84.4024L409.408 0.64759C412.508 -0.391589 415.896 -0.164147 418.827 1.28001C421.759 2.72417 423.996 5.26711 425.046 8.35093L540.349 347.996C541.393 351.082 541.165 354.454 539.714 357.373C538.264 360.292 535.709 362.518 532.612 363.564V363.564Z" fill="#E6E6E6"/>
<path d="M526.259 357.292L284.919 438.496C282.825 439.198 280.536 439.045 278.555 438.069C276.574 437.093 275.063 435.375 274.353 433.291L161.612 101.194C160.907 99.1087 161.061 96.8301 162.042 94.858C163.022 92.8859 164.748 91.3814 166.841 90.6746L408.18 9.47072C410.275 8.76858 412.563 8.92225 414.544 9.89803C416.525 10.8738 418.036 12.592 418.746 14.6757L531.487 346.773C532.192 348.858 532.038 351.137 531.058 353.109C530.078 355.081 528.352 356.585 526.259 357.292V357.292Z" fill="white"/>
<path d="M465.589 461.004H202.836C199.565 461 196.429 459.705 194.116 457.403C191.803 455.1 190.502 451.978 190.498 448.721V90.2029C190.502 86.9464 191.803 83.8245 194.116 81.5218C196.429 79.2192 199.565 77.9239 202.836 77.9203H465.589C468.86 77.9239 471.996 79.2192 474.309 81.5218C476.622 83.8245 477.923 86.9464 477.926 90.2029V448.721C477.923 451.978 476.622 455.1 474.309 457.403C471.996 459.705 468.86 461 465.589 461.004V461.004Z" fill="#CCCCCC"/>
<path d="M461.588 453.037H206.837C204.627 453.035 202.508 452.159 200.945 450.604C199.383 449.048 198.503 446.938 198.501 444.738V94.1864C198.503 91.9861 199.383 89.8767 200.945 88.3208C202.508 86.765 204.627 85.8898 206.837 85.8874H461.588C463.798 85.8898 465.916 86.765 467.479 88.3208C469.042 89.8767 469.921 91.9861 469.924 94.1864V444.738C469.921 446.938 469.042 449.048 467.479 450.604C465.916 452.159 463.798 453.035 461.588 453.037V453.037Z" fill="white"/>
<path d="M407.317 185.328H239.061C237.644 185.328 236.284 184.767 235.282 183.769C234.28 182.771 233.716 181.418 233.716 180.007C233.716 178.596 234.28 177.242 235.282 176.245C236.284 175.247 237.644 174.686 239.061 174.686H407.317C408.735 174.686 410.094 175.247 411.097 176.245C412.099 177.242 412.662 178.596 412.662 180.007C412.662 181.418 412.099 182.771 411.097 183.769C410.094 184.767 408.735 185.328 407.317 185.328Z" fill="#CCCCCC"/>
<path d="M429.364 203.285H239.061C238.359 203.285 237.664 203.148 237.016 202.88C236.367 202.613 235.778 202.221 235.282 201.727C234.786 201.233 234.392 200.646 234.123 200.001C233.855 199.355 233.716 198.663 233.716 197.965C233.716 197.266 233.855 196.574 234.123 195.928C234.392 195.283 234.786 194.696 235.282 194.202C235.778 193.708 236.367 193.316 237.016 193.049C237.664 192.781 238.359 192.644 239.061 192.644H429.364C430.781 192.644 432.14 193.204 433.143 194.202C434.145 195.2 434.708 196.553 434.708 197.965C434.708 199.376 434.145 200.729 433.143 201.727C432.14 202.725 430.781 203.285 429.364 203.285V203.285Z" fill="#CCCCCC"/>
<path d="M407.317 265.804H239.061C237.645 265.803 236.287 265.241 235.286 264.244C234.285 263.246 233.722 261.894 233.722 260.483C233.722 259.073 234.285 257.721 235.286 256.723C236.287 255.726 237.645 255.164 239.061 255.163H407.317C408.735 255.163 410.094 255.723 411.097 256.721C412.099 257.719 412.662 259.072 412.662 260.483C412.662 261.895 412.099 263.248 411.097 264.246C410.094 265.244 408.735 265.804 407.317 265.804Z" fill="#FF63DD"/>
<path d="M429.364 283.762H239.061C237.645 283.76 236.287 283.199 235.286 282.201C234.285 281.204 233.722 279.851 233.722 278.441C233.722 277.031 234.285 275.678 235.286 274.681C236.287 273.683 237.645 273.122 239.061 273.12H429.364C430.781 273.12 432.14 273.681 433.143 274.679C434.145 275.676 434.708 277.03 434.708 278.441C434.708 279.852 434.145 281.205 433.143 282.203C432.14 283.201 430.781 283.762 429.364 283.762V283.762Z" fill="#CCCCCC"/>
<path d="M407.317 346.281H239.061C237.645 346.279 236.287 345.718 235.286 344.72C234.285 343.722 233.722 342.37 233.722 340.96C233.722 339.55 234.285 338.197 235.286 337.2C236.287 336.202 237.645 335.641 239.061 335.639H407.317C408.735 335.639 410.094 336.2 411.097 337.198C412.099 338.195 412.662 339.549 412.662 340.96C412.662 342.371 412.099 343.724 411.097 344.722C410.094 345.72 408.735 346.281 407.317 346.281Z" fill="#CCCCCC"/>
<path d="M429.364 364.238H239.061C237.644 364.238 236.284 363.678 235.282 362.68C234.28 361.682 233.716 360.329 233.716 358.917C233.716 357.506 234.28 356.153 235.282 355.155C236.284 354.157 237.644 353.597 239.061 353.597H429.364C430.781 353.597 432.14 354.157 433.143 355.155C434.145 356.153 434.708 357.506 434.708 358.917C434.708 360.329 434.145 361.682 433.143 362.68C432.14 363.678 430.781 364.238 429.364 364.238V364.238Z" fill="#CCCCCC"/>
<path d="M136.373 246.068H97.6937C96.898 246.067 96.1352 245.752 95.5726 245.192C95.01 244.632 94.6936 243.873 94.6927 243.08V226.482C94.6927 220.584 97.0464 214.926 101.236 210.755C105.426 206.584 111.108 204.241 117.033 204.241C122.958 204.241 128.641 206.584 132.831 210.755C137.02 214.926 139.374 220.584 139.374 226.482V243.08C139.373 243.873 139.057 244.632 138.494 245.192C137.931 245.752 137.169 246.067 136.373 246.068Z" fill="#2F2E41"/>
<path d="M196.071 332.691C195.092 332.641 194.136 332.377 193.271 331.918C192.405 331.46 191.651 330.818 191.062 330.038C190.473 329.258 190.062 328.359 189.86 327.404C189.657 326.449 189.667 325.461 189.89 324.511L169.733 311.854L181.014 306.769L198.426 319.568C200.005 320.045 201.354 321.083 202.216 322.485C203.078 323.886 203.394 325.553 203.104 327.171C202.814 328.789 201.937 330.244 200.641 331.261C199.345 332.279 197.719 332.788 196.071 332.691V332.691Z" fill="#FFB8B8"/>
<path d="M182.162 322.365C181.477 322.302 180.824 322.044 180.281 321.623L124.83 278.832L117.681 266.173C116.989 264.955 116.678 263.559 116.789 262.165C116.899 260.77 117.425 259.44 118.3 258.345V258.345C118.905 257.584 119.662 256.955 120.523 256.499C121.383 256.043 122.33 255.768 123.302 255.693C124.274 255.617 125.252 255.743 126.173 256.061C127.094 256.38 127.939 256.884 128.656 257.543L190.463 307.45C190.862 307.719 191.204 308.065 191.468 308.468C191.732 308.87 191.912 309.321 191.998 309.793C192.084 310.266 192.075 310.751 191.971 311.22C191.866 311.689 191.668 312.133 191.389 312.525L185.464 320.855C185.182 321.254 184.822 321.591 184.405 321.847C183.988 322.102 183.522 322.27 183.038 322.34C182.748 322.383 182.454 322.391 182.162 322.365V322.365Z" fill="#2F2E41"/>
<path d="M51.4796 444.878L59.0588 447.931L74.4939 420.281L63.3082 415.775L51.4796 444.878Z" fill="#FFB8B8"/>
<path d="M50.5477 441.636L65.4733 447.648L65.4739 447.648C66.723 448.152 67.8603 448.895 68.8209 449.836C69.7815 450.776 70.5466 451.896 71.0724 453.132C71.5982 454.367 71.8745 455.693 71.8855 457.034C71.8965 458.376 71.642 459.706 71.1365 460.95L71.0114 461.258L46.5739 451.413L50.5477 441.636Z" fill="#2F2E41"/>
<path d="M139.792 453.367L147.968 453.367L151.858 421.971L139.791 421.972L139.792 453.367Z" fill="#FFB8B8"/>
<path d="M137.707 450.71L153.808 450.709H153.809C155.156 450.709 156.49 450.973 157.735 451.487C158.98 452 160.111 452.753 161.064 453.701C162.017 454.65 162.773 455.776 163.289 457.015C163.804 458.255 164.07 459.583 164.07 460.925V461.257L137.707 461.258L137.707 450.71Z" fill="#2F2E41"/>
<path d="M146.528 435.618C143.281 435.618 140.097 434.3 138.339 433.424C137.884 433.2 137.486 432.874 137.177 432.472C136.868 432.07 136.657 431.603 136.558 431.106L119.325 344.607L74.6169 427.883C74.2151 428.632 73.5395 429.2 72.7297 429.467C63.1007 432.67 57.8492 427.631 56.0379 425.316C55.6694 424.841 55.4396 424.274 55.3739 423.677C55.3083 423.081 55.4092 422.478 55.6657 421.935L76.3717 377.153L88.8915 334.613L101.546 303.482L101.823 303.511L144.139 307.945L149.285 336.119L154.467 429.927C154.513 430.675 154.299 431.416 153.861 432.025C153.033 433.181 151.929 434.114 150.65 434.741C149.37 435.368 147.954 435.67 146.528 435.618V435.618Z" fill="#2F2E41"/>
<path d="M122.547 245.816C131.593 245.816 138.926 238.515 138.926 229.509C138.926 220.503 131.593 213.203 122.547 213.203C113.501 213.203 106.168 220.503 106.168 229.509C106.168 238.515 113.501 245.816 122.547 245.816Z" fill="#FFB8B8"/>
<path d="M128.243 320.896C121.112 320.896 112.289 316.741 101.927 308.488L101.751 308.347L109.077 250.808L109.419 250.796C119.898 250.419 128.426 253.068 135.486 258.913L135.546 258.976L141.271 266.303L141.274 266.437L142.081 311.444L142.061 311.507C141.302 313.567 140.079 315.426 138.485 316.94C136.891 318.455 134.969 319.585 132.867 320.243C131.366 320.685 129.808 320.905 128.243 320.896V320.896Z" fill="#FF63DD"/>
<path d="M138.79 347.795C137.99 347.793 137.212 347.529 136.578 347.043C135.943 346.557 135.487 345.877 135.28 345.107L125.223 307.203L118.852 341.736C118.685 342.652 118.168 343.468 117.409 344.014C116.651 344.559 115.709 344.79 114.783 344.66L87.0406 340.806C86.5118 340.733 86.0058 340.544 85.5587 340.253C85.1117 339.963 84.7346 339.577 84.4543 339.125C84.1741 338.673 83.9976 338.164 83.9376 337.636C83.8776 337.108 83.9354 336.573 84.107 336.069L98.1401 294.892L94.9987 270.767C94.6752 268.282 94.8743 265.758 95.5833 263.355C96.2922 260.951 97.4955 258.72 99.1167 256.805C100.738 254.889 102.742 253.33 105.001 252.226C107.26 251.123 109.724 250.499 112.238 250.395L112.52 250.384L125.863 282.422L127.986 273.971L131.307 255.78L131.803 256.066C136.492 258.757 140.347 262.68 142.948 267.405C145.549 272.131 146.795 277.477 146.55 282.86L145.709 302.126L153.164 341.464C153.341 342.404 153.136 343.376 152.595 344.166C152.055 344.956 151.222 345.501 150.278 345.681L139.466 347.731C139.243 347.774 139.017 347.795 138.79 347.795Z" fill="#2F2E41"/>
<path d="M144.659 228.142H121.008L120.765 224.762L119.553 228.142H115.911L115.43 221.442L113.027 228.142H105.98V227.81C105.985 223.146 107.849 218.674 111.162 215.375C114.475 212.077 118.967 210.222 123.652 210.216H126.987C131.672 210.222 136.164 212.077 139.477 215.375C142.79 218.674 144.654 223.146 144.659 227.81V228.142Z" fill="#2F2E41"/>
<path d="M531.508 462H0.666886C0.490017 462 0.320391 461.93 0.195326 461.806C0.0702605 461.681 0 461.512 0 461.336C0 461.16 0.0702605 460.991 0.195326 460.867C0.320391 460.742 0.490017 460.672 0.666886 460.672H531.508C531.685 460.672 531.855 460.742 531.98 460.867C532.105 460.991 532.175 461.16 532.175 461.336C532.175 461.512 532.105 461.681 531.98 461.806C531.855 461.93 531.685 462 531.508 462Z" fill="#CCCCCC"/>
<path d="M128.811 329.359C128.81 330.424 129.039 331.476 129.482 332.445C129.926 333.415 130.573 334.277 131.381 334.976C132.188 335.674 133.137 336.191 134.163 336.493C135.189 336.794 136.268 336.872 137.327 336.722C138.305 338.954 139.915 340.854 141.961 342.188C144.007 343.523 146.4 344.233 148.846 344.233V344.233C150.496 344.233 152.13 343.91 153.654 343.281C155.178 342.653 156.563 341.731 157.73 340.57C158.897 339.408 159.822 338.029 160.454 336.512C161.085 334.994 161.41 333.368 161.41 331.725V320.887C161.41 318.098 159.139 317.164 156.337 317.164H141.355C138.553 317.164 136.282 318.098 136.282 320.887V321.921C134.301 321.924 132.402 322.708 131.002 324.102C129.601 325.496 128.814 327.387 128.811 329.359V329.359ZM130.849 329.359C130.85 327.925 131.423 326.55 132.442 325.536C133.461 324.522 134.841 323.951 136.282 323.95V331.725C136.282 332.744 136.407 333.76 136.654 334.749C136.53 334.757 136.407 334.768 136.282 334.768C134.841 334.766 133.461 334.196 132.442 333.182C131.423 332.167 130.85 330.793 130.849 329.359H130.849Z" fill="#6C63FF"/>
<path d="M134.828 327.57C134.372 326.706 133.731 325.952 132.951 325.361C132.171 324.77 131.27 324.356 130.312 324.149C129.354 323.942 128.362 323.947 127.406 324.163C126.45 324.379 125.553 324.801 124.778 325.399L104.804 312.46L104.88 324.789L123.837 335.186C124.933 336.415 126.443 337.2 128.082 337.394C129.721 337.588 131.375 337.177 132.73 336.238C134.085 335.3 135.046 333.899 135.433 332.301C135.82 330.704 135.604 329.02 134.828 327.57H134.828Z" fill="#FFB8B8"/>
<path d="M113.199 335.095C112.403 335.095 111.64 334.78 111.077 334.22L85.6415 308.898C84.8289 308.094 84.2359 307.097 83.9188 306.001C83.6017 304.905 83.571 303.747 83.8297 302.636C86.0068 293.16 91.3123 270.517 93.5523 264.943C95.187 260.751 98.213 257.241 102.128 254.998L102.228 254.948L110.28 256.429L110.99 281.156L101.263 301.907L121.945 321.345C122.49 321.853 122.823 322.545 122.881 323.286C122.939 324.027 122.716 324.762 122.258 325.348L115.571 333.938C115.31 334.273 114.98 334.549 114.604 334.747C114.227 334.946 113.813 335.063 113.387 335.089C113.325 335.093 113.261 335.095 113.199 335.095Z" fill="#2F2E41"/>
<path d="M148.818 320.584C153.974 320.584 158.154 319.99 158.154 319.256C158.154 318.523 153.974 317.929 148.818 317.929C143.662 317.929 139.482 318.523 139.482 319.256C139.482 319.99 143.662 320.584 148.818 320.584Z" fill="#2F2E41"/>
</g>
<defs>
<clipPath id="clip0_1_3">
<rect width="541" height="462" fill="white"/>
</clipPath>
</defs>
</svg>
